<svg width="314" height="64" viewBox="0 0 314 64" fill="none" xmlns="http://www.w3.org/2000/svg">
<path d="M313.5 32.3114C313.5 34.2915 312.496 36.2818 310.461 38.2661C308.425 40.2511 305.396 42.1898 301.449 44.0515C293.558 47.7737 282.107 51.1388 267.918 53.9697C239.547 59.6299 200.332 63.1343 157 63.1343C113.668 63.1343 74.4526 59.6299 46.0821 53.9697C31.8927 51.1388 20.4422 47.7737 12.5511 44.0515C8.60432 42.1898 5.5747 40.2511 3.53873 38.2661C1.50353 36.2818 0.5 34.2915 0.5 32.3114C0.5 30.3313 1.50353 28.3411 3.53873 26.3568C5.5747 24.3718 8.60432 22.4331 12.5511 20.5714C20.4422 16.8492 31.8927 13.4841 46.0821 10.6532C74.4526 4.99302 113.668 1.48859 157 1.48859C200.332 1.48859 239.547 4.99302 267.918 10.6532C282.107 13.4841 293.558 16.8492 301.449 20.5714C305.396 22.4331 308.425 24.3718 310.461 26.3568C312.496 28.3411 313.5 30.3313 313.5 32.3114Z" stroke="#F25822"/>
</svg>
